<?xml version="1.0" standalone="no"?><!DOCTYPE svg PUBLIC "-//W3C//DTD SVG 1.1//EN" "http://www.w3.org/Graphics/SVG/1.1/DTD/svg11.dtd"><svg t="1691409719886" class="icon" viewBox="0 0 1024 1024" version="1.1" xmlns="http://www.w3.org/2000/svg" p-id="22134" xmlns:xlink="http://www.w3.org/1999/xlink" width="200" height="200"><path d="M232.04577 936.071392c25.444509-7.40976 51.137681-1.9934 76.779687 0.633427 0.804319-1.14815 1.607614-2.302439 2.411933-3.450589-9.328459-9.91686-18.163685-20.571525-28.119431-29.546943-10.299577-9.283434-21.877263-16.622586-32.493042-25.478278-3.365654-2.811022-5.424546-7.745405-8.080026-11.710716 0.797156-1.635243 1.592264-3.275603 2.387373-4.91187 8.026814 2.27481 16.960277 2.659573 23.919782 7.17133 24.826432 16.092513 49.380664 32.877805 73.186859 50.930973 8.761548 6.646374 14.09195 9.052167 23.255657 0.422625 25.867134-24.346501 52.913117-46.987151 79.233576-70.696132 11.745509-10.578939 13.873985-25.826202 13.636578-42.936905-20.134573-2.561335-39.892569-3.520173-59.113329-7.783267-85.914742-19.057031-155.363464-68.24429-205.232245-153.464207-26.064632-44.541449-44.809555-92.266403-52.297087-145.618519-1.171686-8.344039-5.071506-9.694803-11.42726-10.401908-33.099862-3.685949-66.174142-7.720845-99.19214-12.30321-7.747451-1.075495-15.490809-4.013407-22.734794-7.510044-3.51608-1.694595-8.354272-6.884804-8.140401-10.095939 0.295735-4.487198 3.989871-10.862395 7.557116-12.498662 17.97335-8.229428 35.976376-17.342993 54.723346-22.069645 26.211988-6.607488 53.152571-9.18622 79.617315-14.594393 4.122901-0.842181 9.216919-6.765077 10.727319-11.654434 15.219633-49.174979 41.869596-88.51087 79.562057-115.315352 63.300698-45.02138 130.603547-51.716872 198.810998-15.728216 52.027957 27.447119 92.984764 70.929446 123.845633 126.983089 11.957333 21.716604 23.053042 44.074821 34.975583 65.813938 2.110057 3.845585 6.013971 7.758708 9.69071 8.826016 40.20877 11.6749 80.535221 22.790052 120.996748 34.101679-11.497868-38.824237-18.763342-79.060637-17.262152-120.859625 0.195451-5.40715 2.961448-10.69355 4.53734-16.032138 4.433986 2.570545 10.020214 3.947915 13.060457 7.952112 6.399757 8.423857 11.466146 18.228153 16.787338 26.984584 1.049912-156.25374 41.002856-293.393143 149.753699-401.230174 2.263553 10.601452 5.3918 18.044982 5.163603 25.346271-1.204431 38.659485-3.225461 77.284177-5.042853 115.916033-0.191358 4.093225-0.877997 8.15575 0.687662 13.881149 9.467629-13.111622 19.363-25.838482 28.322046-39.403428 25.499767-38.597063 57.932434-67.88818 92.303242-94.64252 8.091282-6.299473 13.603833-2.963495 13.279445 7.846712-0.809435 26.605961-0.385786 53.67548-4.574179 79.658248-17.382902 107.758236-56.43329 205.243501-107.345844 296.726052-1.078565 1.934049-2.119267 3.908006-3.015683 5.957689-1.25969 2.865257-2.366907 5.817496-4.220115 10.416234 3.170203-1.013073 5.191232-1.443885 7.068999-2.296299 17.610076-8.005324 35.05847-16.536628 52.878324-23.833825 4.638647-1.895163 10.416234-0.00307 15.667841 0.149403-1.626034 6.312776-2.098801 13.501502-5.068436 18.790972-19.332301 34.424021-44.612057 62.35107-72.575946 87.034239-27.577079 24.344454-57.369615 44.188408-86.460164 55.632041-1.2689 11.972683-1.133823 21.476127-3.500731 30.042223-2.435469 8.819876-7.306406 16.73208-12.252045 27.525913 10.794857-1.032516 19.196201-2.452865 27.601638-2.518357 21.340027-0.165776 42.697451-0.127913 64.018036 0.798179 4.536316 0.196475 8.94165 4.511757 13.409404 6.930853-2.109034 5.190209-3.26537 11.425214-6.479575 15.400758-16.673751 20.653389-38.239929 32.438806-60.170404 43.396369-2.366907 1.182942-4.643764 2.611477-8.366551 4.720511 9.490142 2.947122 17.243733 5.353938 24.996301 7.760754 0.37146 1.50426 0.743944 3.006474 1.115404 4.50664-7.483438 6.080485-14.486946 13.239536-22.528086 18.050098-29.351492 17.558911-60.771085 26.214035-93.746104 27.010167-15.826454 0.385786-31.652907 0.417509-47.479361 0.76748-2.298346 0.048095-4.854565 0.375553-6.830569 1.598404-14.273075 8.841366-28.428469 17.951861-44.539402 28.194132 7.763824 4.524037 14.198374 9.601682 21.305235 12.189623 33.608445 12.253068 60.217477 38.35147 89.207741 59.812247 12.314467 9.113565 25.621541 16.398482 38.367843 24.75173 6.127558 4.013407 9.707083 1.657756 13.896498-4.437056 8.150634-11.850909 17.190521-22.884197 26.084075-34.009582 1.642406-2.053776 4.348028-2.950192 7.690146-5.108345 0.450255 4.210905 1.422396 6.971785 0.896416 9.276271-12.611226 55.549154-16.97358 112.551402-22.491247 169.370479-0.459464 4.738931-3.304256 9.16473-6.350638 17.180288-12.193717-24.87248-10.497075-49.992601-16.185634-75.726705-6.715959 10.763135-13.497409 21.465894-20.116153 32.308847-3.212158 5.258771-5.78168 11.103896-9.318226 16.021905-1.413186 1.965771-4.652973 2.14485-7.063883 3.13541-0.63752-2.790556-2.336208-5.937223-1.74576-8.309246 5.077645-20.349467 9.873882-40.86778 16.172331-60.717873 4.490268-14.153348 2.877537-23.231097-8.287757-32.432667-19.376303-15.97381-36.582173-35.640732-56.368822-50.798966-16.322757-12.506848-34.974559-20.940938-52.785204-30.713512-4.954849-2.715855-10.852162-3.056616-15.862269-5.661953-29.927613-15.578814-59.936067-19.0908-91.778286-6.681166-13.193487 5.142114-28.282137 3.390213-42.34441 5.987365-4.210905 0.778736-10.426467 4.823865-11.378142 8.789177-10.108219 42.203194-40.661072 63.311954-66.596767 89.093131-14.152325 14.072507-29.377074 26.719548-43.138496 41.256636-4.27128 4.511757-6.344498 12.900821-7.604188 19.954471-1.431605 8.010441-0.297782 16.607236-1.333368 24.774243-0.506537 3.997034-2.78237 9.69071-5.40101 10.735505-2.437515 0.979304-6.483668-3.006474-9.637498-5.172813-1.289366-0.88823-2.558265-2.529613-3.065825-4.154623-7.329942-23.659863-24.909319-24.293289-42.443671-27.591405-24.159236-4.54348-47.974641-11.672854-71.873957-18.005073-3.1262-0.829901-5.889127-3.499707-8.821923-5.319146C231.583235 939.467745 231.815526 937.771103 232.04577 936.071392z" p-id="22135"></path></svg>